<mxfile host="app.diagrams.net" modified="2023-07-01T12:40:01.833Z" agent="Mozilla/5.0 (X11; Ubuntu; Linux x86_64; rv:109.0) Gecko/20100101 Firefox/110.0" etag="ehq-tUChKpwqVCBuIHiI" version="21.5.2" type="device">
  <diagram name="第 1 页" id="Fs6ySfdYRnOQusRv8BuP">
    <mxGraphModel dx="2316" dy="794" grid="1" gridSize="10" guides="1" tooltips="1" connect="1" arrows="1" fold="1" page="1" pageScale="1" pageWidth="827" pageHeight="1169" math="0" shadow="0">
      <root>
        <mxCell id="0" />
        <mxCell id="1" parent="0" />
        <mxCell id="plJcMNRpf6sVQVYFQnrF-108" style="edgeStyle=orthogonalEdgeStyle;orthogonalLoop=1;jettySize=auto;html=1;entryX=0;entryY=0.5;entryDx=0;entryDy=0;curved=1;" edge="1" parent="1" source="plJcMNRpf6sVQVYFQnrF-1" target="plJcMNRpf6sVQVYFQnrF-10">
          <mxGeometry relative="1" as="geometry">
            <Array as="points">
              <mxPoint x="70" y="144" />
            </Array>
          </mxGeometry>
        </mxCell>
        <mxCell id="plJcMNRpf6sVQVYFQnrF-110" style="edgeStyle=orthogonalEdgeStyle;orthogonalLoop=1;jettySize=auto;html=1;exitX=0.5;exitY=1;exitDx=0;exitDy=0;entryX=0;entryY=0.5;entryDx=0;entryDy=0;curved=1;" edge="1" parent="1" source="plJcMNRpf6sVQVYFQnrF-1" target="plJcMNRpf6sVQVYFQnrF-11">
          <mxGeometry relative="1" as="geometry" />
        </mxCell>
        <mxCell id="plJcMNRpf6sVQVYFQnrF-112" style="edgeStyle=orthogonalEdgeStyle;orthogonalLoop=1;jettySize=auto;html=1;exitX=1;exitY=0.5;exitDx=0;exitDy=0;curved=1;" edge="1" parent="1" source="plJcMNRpf6sVQVYFQnrF-1">
          <mxGeometry relative="1" as="geometry">
            <mxPoint x="190" y="394.66666666666674" as="targetPoint" />
          </mxGeometry>
        </mxCell>
        <mxCell id="plJcMNRpf6sVQVYFQnrF-1" value="主体" style="rounded=1;whiteSpace=wrap;html=1;" vertex="1" parent="1">
          <mxGeometry x="10" y="365" width="120" height="60" as="geometry" />
        </mxCell>
        <mxCell id="plJcMNRpf6sVQVYFQnrF-3" value="模块层" style="text;html=1;strokeColor=none;fillColor=none;align=center;verticalAlign=middle;whiteSpace=wrap;rounded=0;" vertex="1" parent="1">
          <mxGeometry x="187.5" y="20" width="60" height="30" as="geometry" />
        </mxCell>
        <mxCell id="plJcMNRpf6sVQVYFQnrF-5" value="页面层" style="text;html=1;strokeColor=none;fillColor=none;align=center;verticalAlign=middle;whiteSpace=wrap;rounded=0;" vertex="1" parent="1">
          <mxGeometry x="332.31" y="20" width="100" height="30" as="geometry" />
        </mxCell>
        <mxCell id="plJcMNRpf6sVQVYFQnrF-7" value="元素层" style="text;html=1;strokeColor=none;fillColor=none;align=center;verticalAlign=middle;whiteSpace=wrap;rounded=0;" vertex="1" parent="1">
          <mxGeometry x="550" y="20" width="60" height="30" as="geometry" />
        </mxCell>
        <mxCell id="plJcMNRpf6sVQVYFQnrF-9" value="调用层" style="text;html=1;strokeColor=none;fillColor=none;align=center;verticalAlign=middle;whiteSpace=wrap;rounded=0;" vertex="1" parent="1">
          <mxGeometry x="730" y="20" width="60" height="30" as="geometry" />
        </mxCell>
        <mxCell id="plJcMNRpf6sVQVYFQnrF-113" style="edgeStyle=orthogonalEdgeStyle;orthogonalLoop=1;jettySize=auto;html=1;exitX=1;exitY=0.5;exitDx=0;exitDy=0;entryX=0;entryY=0.5;entryDx=0;entryDy=0;curved=1;" edge="1" parent="1" source="plJcMNRpf6sVQVYFQnrF-10" target="plJcMNRpf6sVQVYFQnrF-13">
          <mxGeometry relative="1" as="geometry" />
        </mxCell>
        <mxCell id="plJcMNRpf6sVQVYFQnrF-10" value="首页" style="rounded=1;whiteSpace=wrap;html=1;" vertex="1" parent="1">
          <mxGeometry x="196.25" y="123.75" width="62.5" height="40" as="geometry" />
        </mxCell>
        <mxCell id="plJcMNRpf6sVQVYFQnrF-118" style="edgeStyle=orthogonalEdgeStyle;orthogonalLoop=1;jettySize=auto;html=1;exitX=0.5;exitY=1;exitDx=0;exitDy=0;entryX=0;entryY=0.75;entryDx=0;entryDy=0;curved=1;" edge="1" parent="1" source="plJcMNRpf6sVQVYFQnrF-11" target="plJcMNRpf6sVQVYFQnrF-19">
          <mxGeometry relative="1" as="geometry" />
        </mxCell>
        <mxCell id="plJcMNRpf6sVQVYFQnrF-119" style="edgeStyle=orthogonalEdgeStyle;orthogonalLoop=1;jettySize=auto;html=1;exitX=0.5;exitY=0;exitDx=0;exitDy=0;entryX=0;entryY=0.25;entryDx=0;entryDy=0;curved=1;" edge="1" parent="1" source="plJcMNRpf6sVQVYFQnrF-11" target="plJcMNRpf6sVQVYFQnrF-18">
          <mxGeometry relative="1" as="geometry">
            <mxPoint x="227.16666666666674" y="700" as="targetPoint" />
          </mxGeometry>
        </mxCell>
        <mxCell id="plJcMNRpf6sVQVYFQnrF-11" value="个人中心" style="rounded=1;whiteSpace=wrap;html=1;" vertex="1" parent="1">
          <mxGeometry x="191.25" y="730" width="72.5" height="30" as="geometry" />
        </mxCell>
        <mxCell id="plJcMNRpf6sVQVYFQnrF-114" style="edgeStyle=orthogonalEdgeStyle;orthogonalLoop=1;jettySize=auto;html=1;exitX=0.5;exitY=0;exitDx=0;exitDy=0;entryX=0;entryY=0.75;entryDx=0;entryDy=0;curved=1;" edge="1" parent="1" source="plJcMNRpf6sVQVYFQnrF-12" target="plJcMNRpf6sVQVYFQnrF-14">
          <mxGeometry relative="1" as="geometry" />
        </mxCell>
        <mxCell id="plJcMNRpf6sVQVYFQnrF-115" style="edgeStyle=orthogonalEdgeStyle;orthogonalLoop=1;jettySize=auto;html=1;exitX=1;exitY=0.5;exitDx=0;exitDy=0;curved=1;" edge="1" parent="1" source="plJcMNRpf6sVQVYFQnrF-12" target="plJcMNRpf6sVQVYFQnrF-15">
          <mxGeometry relative="1" as="geometry" />
        </mxCell>
        <mxCell id="plJcMNRpf6sVQVYFQnrF-116" style="edgeStyle=orthogonalEdgeStyle;orthogonalLoop=1;jettySize=auto;html=1;exitX=0.5;exitY=1;exitDx=0;exitDy=0;entryX=0;entryY=0.75;entryDx=0;entryDy=0;curved=1;" edge="1" parent="1" source="plJcMNRpf6sVQVYFQnrF-12" target="plJcMNRpf6sVQVYFQnrF-16">
          <mxGeometry relative="1" as="geometry" />
        </mxCell>
        <mxCell id="plJcMNRpf6sVQVYFQnrF-12" value="工作空间" style="rounded=1;whiteSpace=wrap;html=1;" vertex="1" parent="1">
          <mxGeometry x="191.25" y="374.38" width="76.25" height="41.25" as="geometry" />
        </mxCell>
        <mxCell id="plJcMNRpf6sVQVYFQnrF-125" style="edgeStyle=orthogonalEdgeStyle;orthogonalLoop=1;jettySize=auto;html=1;exitX=0.5;exitY=0;exitDx=0;exitDy=0;entryX=0;entryY=0.5;entryDx=0;entryDy=0;curved=1;" edge="1" parent="1" source="plJcMNRpf6sVQVYFQnrF-13" target="plJcMNRpf6sVQVYFQnrF-24">
          <mxGeometry relative="1" as="geometry">
            <Array as="points">
              <mxPoint x="378" y="110" />
            </Array>
          </mxGeometry>
        </mxCell>
        <mxCell id="plJcMNRpf6sVQVYFQnrF-126" style="edgeStyle=orthogonalEdgeStyle;orthogonalLoop=1;jettySize=auto;html=1;exitX=1;exitY=0.5;exitDx=0;exitDy=0;curved=1;" edge="1" parent="1" source="plJcMNRpf6sVQVYFQnrF-13">
          <mxGeometry relative="1" as="geometry">
            <mxPoint x="540" y="140" as="targetPoint" />
            <Array as="points">
              <mxPoint x="426" y="140" />
            </Array>
          </mxGeometry>
        </mxCell>
        <mxCell id="plJcMNRpf6sVQVYFQnrF-127" style="edgeStyle=orthogonalEdgeStyle;orthogonalLoop=1;jettySize=auto;html=1;exitX=0.5;exitY=1;exitDx=0;exitDy=0;curved=1;" edge="1" parent="1" source="plJcMNRpf6sVQVYFQnrF-13">
          <mxGeometry relative="1" as="geometry">
            <mxPoint x="540" y="170" as="targetPoint" />
            <Array as="points">
              <mxPoint x="378" y="170" />
            </Array>
          </mxGeometry>
        </mxCell>
        <mxCell id="plJcMNRpf6sVQVYFQnrF-13" value="&lt;div&gt;首页页面&lt;/div&gt;" style="rounded=1;whiteSpace=wrap;html=1;" vertex="1" parent="1">
          <mxGeometry x="330.00000000000006" y="127.5" width="95.75" height="32.5" as="geometry" />
        </mxCell>
        <mxCell id="plJcMNRpf6sVQVYFQnrF-128" style="edgeStyle=orthogonalEdgeStyle;orthogonalLoop=1;jettySize=auto;html=1;exitX=0.5;exitY=0;exitDx=0;exitDy=0;entryX=0;entryY=0.5;entryDx=0;entryDy=0;curved=1;" edge="1" parent="1" source="plJcMNRpf6sVQVYFQnrF-14" target="plJcMNRpf6sVQVYFQnrF-22">
          <mxGeometry relative="1" as="geometry" />
        </mxCell>
        <mxCell id="plJcMNRpf6sVQVYFQnrF-129" style="edgeStyle=orthogonalEdgeStyle;orthogonalLoop=1;jettySize=auto;html=1;exitX=0.75;exitY=0;exitDx=0;exitDy=0;entryX=0;entryY=0.25;entryDx=0;entryDy=0;curved=1;" edge="1" parent="1" source="plJcMNRpf6sVQVYFQnrF-14" target="plJcMNRpf6sVQVYFQnrF-21">
          <mxGeometry relative="1" as="geometry" />
        </mxCell>
        <mxCell id="plJcMNRpf6sVQVYFQnrF-130" style="edgeStyle=orthogonalEdgeStyle;orthogonalLoop=1;jettySize=auto;html=1;exitX=1;exitY=0.5;exitDx=0;exitDy=0;entryX=0;entryY=0.5;entryDx=0;entryDy=0;curved=1;" edge="1" parent="1" source="plJcMNRpf6sVQVYFQnrF-14" target="plJcMNRpf6sVQVYFQnrF-27">
          <mxGeometry relative="1" as="geometry" />
        </mxCell>
        <mxCell id="plJcMNRpf6sVQVYFQnrF-131" style="edgeStyle=orthogonalEdgeStyle;orthogonalLoop=1;jettySize=auto;html=1;exitX=0.5;exitY=1;exitDx=0;exitDy=0;entryX=0;entryY=0.75;entryDx=0;entryDy=0;curved=1;" edge="1" parent="1" source="plJcMNRpf6sVQVYFQnrF-14" target="plJcMNRpf6sVQVYFQnrF-29">
          <mxGeometry relative="1" as="geometry">
            <Array as="points">
              <mxPoint x="361" y="330" />
              <mxPoint x="530" y="330" />
            </Array>
          </mxGeometry>
        </mxCell>
        <mxCell id="plJcMNRpf6sVQVYFQnrF-132" style="edgeStyle=orthogonalEdgeStyle;orthogonalLoop=1;jettySize=auto;html=1;exitX=0.75;exitY=1;exitDx=0;exitDy=0;entryX=0;entryY=0.5;entryDx=0;entryDy=0;curved=1;" edge="1" parent="1" source="plJcMNRpf6sVQVYFQnrF-14" target="plJcMNRpf6sVQVYFQnrF-28">
          <mxGeometry relative="1" as="geometry">
            <Array as="points">
              <mxPoint x="387" y="305" />
              <mxPoint x="480" y="305" />
              <mxPoint x="480" y="296" />
            </Array>
          </mxGeometry>
        </mxCell>
        <mxCell id="plJcMNRpf6sVQVYFQnrF-14" value="教授课程页面" style="rounded=1;whiteSpace=wrap;html=1;" vertex="1" parent="1">
          <mxGeometry x="310" y="245" width="102.88" height="40" as="geometry" />
        </mxCell>
        <mxCell id="plJcMNRpf6sVQVYFQnrF-133" style="edgeStyle=orthogonalEdgeStyle;orthogonalLoop=1;jettySize=auto;html=1;exitX=0.5;exitY=0;exitDx=0;exitDy=0;entryX=0;entryY=0.5;entryDx=0;entryDy=0;curved=1;" edge="1" parent="1" source="plJcMNRpf6sVQVYFQnrF-15" target="plJcMNRpf6sVQVYFQnrF-68">
          <mxGeometry relative="1" as="geometry">
            <Array as="points">
              <mxPoint x="384" y="383" />
              <mxPoint x="384" y="350" />
              <mxPoint x="486" y="350" />
              <mxPoint x="486" y="360" />
            </Array>
          </mxGeometry>
        </mxCell>
        <mxCell id="plJcMNRpf6sVQVYFQnrF-134" style="edgeStyle=orthogonalEdgeStyle;orthogonalLoop=1;jettySize=auto;html=1;exitX=0.5;exitY=1;exitDx=0;exitDy=0;entryX=0;entryY=0.5;entryDx=0;entryDy=0;curved=1;" edge="1" parent="1" source="plJcMNRpf6sVQVYFQnrF-15" target="plJcMNRpf6sVQVYFQnrF-78">
          <mxGeometry relative="1" as="geometry" />
        </mxCell>
        <mxCell id="plJcMNRpf6sVQVYFQnrF-135" style="edgeStyle=orthogonalEdgeStyle;orthogonalLoop=1;jettySize=auto;html=1;exitX=0.75;exitY=1;exitDx=0;exitDy=0;entryX=0;entryY=0.75;entryDx=0;entryDy=0;curved=1;" edge="1" parent="1" source="plJcMNRpf6sVQVYFQnrF-15" target="plJcMNRpf6sVQVYFQnrF-74">
          <mxGeometry relative="1" as="geometry" />
        </mxCell>
        <mxCell id="plJcMNRpf6sVQVYFQnrF-136" style="edgeStyle=orthogonalEdgeStyle;orthogonalLoop=1;jettySize=auto;html=1;exitX=1;exitY=0.5;exitDx=0;exitDy=0;entryX=0;entryY=0.5;entryDx=0;entryDy=0;curved=1;" edge="1" parent="1" source="plJcMNRpf6sVQVYFQnrF-15" target="plJcMNRpf6sVQVYFQnrF-71">
          <mxGeometry relative="1" as="geometry">
            <Array as="points">
              <mxPoint x="417" y="413" />
              <mxPoint x="475" y="413" />
            </Array>
          </mxGeometry>
        </mxCell>
        <mxCell id="plJcMNRpf6sVQVYFQnrF-137" style="edgeStyle=orthogonalEdgeStyle;orthogonalLoop=1;jettySize=auto;html=1;exitX=0.75;exitY=0;exitDx=0;exitDy=0;entryX=0;entryY=0.5;entryDx=0;entryDy=0;curved=1;" edge="1" parent="1" source="plJcMNRpf6sVQVYFQnrF-15" target="plJcMNRpf6sVQVYFQnrF-69">
          <mxGeometry relative="1" as="geometry">
            <Array as="points">
              <mxPoint x="410" y="383" />
              <mxPoint x="410" y="380" />
              <mxPoint x="486" y="380" />
              <mxPoint x="486" y="388" />
            </Array>
          </mxGeometry>
        </mxCell>
        <mxCell id="plJcMNRpf6sVQVYFQnrF-15" value="发表论文页面" style="rounded=1;whiteSpace=wrap;html=1;" vertex="1" parent="1">
          <mxGeometry x="310" y="383.13" width="107.31" height="32.5" as="geometry" />
        </mxCell>
        <mxCell id="plJcMNRpf6sVQVYFQnrF-138" style="edgeStyle=orthogonalEdgeStyle;orthogonalLoop=1;jettySize=auto;html=1;exitX=0.5;exitY=0;exitDx=0;exitDy=0;entryX=0;entryY=0.5;entryDx=0;entryDy=0;curved=1;" edge="1" parent="1" source="plJcMNRpf6sVQVYFQnrF-16" target="plJcMNRpf6sVQVYFQnrF-67">
          <mxGeometry relative="1" as="geometry" />
        </mxCell>
        <mxCell id="plJcMNRpf6sVQVYFQnrF-139" style="edgeStyle=orthogonalEdgeStyle;orthogonalLoop=1;jettySize=auto;html=1;exitX=0.75;exitY=0;exitDx=0;exitDy=0;entryX=0;entryY=0.5;entryDx=0;entryDy=0;curved=1;" edge="1" parent="1" source="plJcMNRpf6sVQVYFQnrF-16" target="plJcMNRpf6sVQVYFQnrF-70">
          <mxGeometry relative="1" as="geometry">
            <Array as="points">
              <mxPoint x="385" y="530" />
              <mxPoint x="472" y="530" />
              <mxPoint x="472" y="528" />
            </Array>
          </mxGeometry>
        </mxCell>
        <mxCell id="plJcMNRpf6sVQVYFQnrF-140" style="edgeStyle=orthogonalEdgeStyle;orthogonalLoop=1;jettySize=auto;html=1;exitX=1;exitY=0.5;exitDx=0;exitDy=0;curved=1;" edge="1" parent="1" source="plJcMNRpf6sVQVYFQnrF-16">
          <mxGeometry relative="1" as="geometry">
            <mxPoint x="530" y="554.6666666666667" as="targetPoint" />
          </mxGeometry>
        </mxCell>
        <mxCell id="plJcMNRpf6sVQVYFQnrF-141" style="edgeStyle=orthogonalEdgeStyle;orthogonalLoop=1;jettySize=auto;html=1;exitX=0.75;exitY=1;exitDx=0;exitDy=0;entryX=0;entryY=0.5;entryDx=0;entryDy=0;curved=1;" edge="1" parent="1" source="plJcMNRpf6sVQVYFQnrF-16" target="plJcMNRpf6sVQVYFQnrF-73">
          <mxGeometry relative="1" as="geometry">
            <Array as="points">
              <mxPoint x="385" y="580" />
              <mxPoint x="470" y="580" />
              <mxPoint x="470" y="581" />
            </Array>
          </mxGeometry>
        </mxCell>
        <mxCell id="plJcMNRpf6sVQVYFQnrF-142" style="edgeStyle=orthogonalEdgeStyle;orthogonalLoop=1;jettySize=auto;html=1;exitX=0.5;exitY=1;exitDx=0;exitDy=0;entryX=0;entryY=0.5;entryDx=0;entryDy=0;curved=1;" edge="1" parent="1" source="plJcMNRpf6sVQVYFQnrF-16" target="plJcMNRpf6sVQVYFQnrF-77">
          <mxGeometry relative="1" as="geometry" />
        </mxCell>
        <mxCell id="plJcMNRpf6sVQVYFQnrF-16" value="承担项目页面" style="rounded=1;whiteSpace=wrap;html=1;" vertex="1" parent="1">
          <mxGeometry x="310" y="535" width="100" height="35" as="geometry" />
        </mxCell>
        <mxCell id="plJcMNRpf6sVQVYFQnrF-143" style="edgeStyle=orthogonalEdgeStyle;orthogonalLoop=1;jettySize=auto;html=1;exitX=0.5;exitY=0;exitDx=0;exitDy=0;entryX=0;entryY=0.5;entryDx=0;entryDy=0;curved=1;" edge="1" parent="1" source="plJcMNRpf6sVQVYFQnrF-18" target="plJcMNRpf6sVQVYFQnrF-85">
          <mxGeometry relative="1" as="geometry" />
        </mxCell>
        <mxCell id="plJcMNRpf6sVQVYFQnrF-144" style="edgeStyle=orthogonalEdgeStyle;orthogonalLoop=1;jettySize=auto;html=1;exitX=0.75;exitY=0;exitDx=0;exitDy=0;entryX=0;entryY=0.5;entryDx=0;entryDy=0;curved=1;" edge="1" parent="1" source="plJcMNRpf6sVQVYFQnrF-18" target="plJcMNRpf6sVQVYFQnrF-84">
          <mxGeometry relative="1" as="geometry">
            <Array as="points">
              <mxPoint x="400" y="690" />
              <mxPoint x="479" y="690" />
              <mxPoint x="479" y="693" />
            </Array>
          </mxGeometry>
        </mxCell>
        <mxCell id="plJcMNRpf6sVQVYFQnrF-145" style="edgeStyle=orthogonalEdgeStyle;orthogonalLoop=1;jettySize=auto;html=1;exitX=0.75;exitY=1;exitDx=0;exitDy=0;entryX=0;entryY=0.5;entryDx=0;entryDy=0;curved=1;" edge="1" parent="1" source="plJcMNRpf6sVQVYFQnrF-18" target="plJcMNRpf6sVQVYFQnrF-91">
          <mxGeometry relative="1" as="geometry">
            <Array as="points">
              <mxPoint x="479" y="730" />
              <mxPoint x="479" y="723" />
            </Array>
          </mxGeometry>
        </mxCell>
        <mxCell id="plJcMNRpf6sVQVYFQnrF-146" style="edgeStyle=orthogonalEdgeStyle;orthogonalLoop=1;jettySize=auto;html=1;exitX=0.5;exitY=1;exitDx=0;exitDy=0;entryX=0;entryY=0.75;entryDx=0;entryDy=0;curved=1;" edge="1" parent="1" source="plJcMNRpf6sVQVYFQnrF-18" target="plJcMNRpf6sVQVYFQnrF-92">
          <mxGeometry relative="1" as="geometry" />
        </mxCell>
        <mxCell id="plJcMNRpf6sVQVYFQnrF-18" value="个人信息页面" style="rounded=1;whiteSpace=wrap;html=1;" vertex="1" parent="1">
          <mxGeometry x="324.63" y="700" width="100" height="30" as="geometry" />
        </mxCell>
        <mxCell id="plJcMNRpf6sVQVYFQnrF-147" style="edgeStyle=orthogonalEdgeStyle;orthogonalLoop=1;jettySize=auto;html=1;exitX=1;exitY=0.5;exitDx=0;exitDy=0;entryX=0;entryY=0.5;entryDx=0;entryDy=0;curved=1;" edge="1" parent="1" source="plJcMNRpf6sVQVYFQnrF-19" target="plJcMNRpf6sVQVYFQnrF-26">
          <mxGeometry relative="1" as="geometry" />
        </mxCell>
        <mxCell id="plJcMNRpf6sVQVYFQnrF-19" value="修改信息页面" style="rounded=1;whiteSpace=wrap;html=1;" vertex="1" parent="1">
          <mxGeometry x="326.44" y="770" width="98.19" height="30" as="geometry" />
        </mxCell>
        <mxCell id="plJcMNRpf6sVQVYFQnrF-148" style="edgeStyle=orthogonalEdgeStyle;orthogonalLoop=1;jettySize=auto;html=1;exitX=1;exitY=0.5;exitDx=0;exitDy=0;entryX=0;entryY=0.5;entryDx=0;entryDy=0;curved=1;" edge="1" parent="1" source="plJcMNRpf6sVQVYFQnrF-20" target="plJcMNRpf6sVQVYFQnrF-43">
          <mxGeometry relative="1" as="geometry" />
        </mxCell>
        <mxCell id="plJcMNRpf6sVQVYFQnrF-20" value="导航栏" style="rounded=1;whiteSpace=wrap;html=1;" vertex="1" parent="1">
          <mxGeometry x="542.5" y="70" width="67.5" height="20" as="geometry" />
        </mxCell>
        <mxCell id="plJcMNRpf6sVQVYFQnrF-152" style="edgeStyle=orthogonalEdgeStyle;orthogonalLoop=1;jettySize=auto;html=1;exitX=1;exitY=0.5;exitDx=0;exitDy=0;entryX=0;entryY=0.75;entryDx=0;entryDy=0;curved=1;" edge="1" parent="1" source="plJcMNRpf6sVQVYFQnrF-21" target="plJcMNRpf6sVQVYFQnrF-47">
          <mxGeometry relative="1" as="geometry" />
        </mxCell>
        <mxCell id="plJcMNRpf6sVQVYFQnrF-21" value="删除课程表单" style="rounded=1;whiteSpace=wrap;html=1;" vertex="1" parent="1">
          <mxGeometry x="537.5" y="220" width="79.37" height="20" as="geometry" />
        </mxCell>
        <mxCell id="plJcMNRpf6sVQVYFQnrF-151" style="edgeStyle=orthogonalEdgeStyle;orthogonalLoop=1;jettySize=auto;html=1;exitX=1;exitY=0.5;exitDx=0;exitDy=0;entryX=0;entryY=0.75;entryDx=0;entryDy=0;curved=1;" edge="1" parent="1" source="plJcMNRpf6sVQVYFQnrF-22" target="plJcMNRpf6sVQVYFQnrF-38">
          <mxGeometry relative="1" as="geometry" />
        </mxCell>
        <mxCell id="plJcMNRpf6sVQVYFQnrF-22" value="新建课程表单" style="rounded=1;whiteSpace=wrap;html=1;" vertex="1" parent="1">
          <mxGeometry x="537.5" y="190" width="80" height="25" as="geometry" />
        </mxCell>
        <mxCell id="plJcMNRpf6sVQVYFQnrF-23" value="欢迎界面" style="rounded=1;whiteSpace=wrap;html=1;" vertex="1" parent="1">
          <mxGeometry x="541.88" y="157.5" width="67.5" height="20" as="geometry" />
        </mxCell>
        <mxCell id="plJcMNRpf6sVQVYFQnrF-149" style="edgeStyle=orthogonalEdgeStyle;orthogonalLoop=1;jettySize=auto;html=1;exitX=1;exitY=0.5;exitDx=0;exitDy=0;curved=1;" edge="1" parent="1" source="plJcMNRpf6sVQVYFQnrF-24">
          <mxGeometry relative="1" as="geometry">
            <mxPoint x="700" y="120" as="targetPoint" />
          </mxGeometry>
        </mxCell>
        <mxCell id="plJcMNRpf6sVQVYFQnrF-24" value="注册表单" style="rounded=1;whiteSpace=wrap;html=1;" vertex="1" parent="1">
          <mxGeometry x="540.32" y="100" width="67.5" height="20" as="geometry" />
        </mxCell>
        <mxCell id="plJcMNRpf6sVQVYFQnrF-150" style="edgeStyle=orthogonalEdgeStyle;orthogonalLoop=1;jettySize=auto;html=1;exitX=1;exitY=0.5;exitDx=0;exitDy=0;entryX=0;entryY=0.5;entryDx=0;entryDy=0;curved=1;" edge="1" parent="1" source="plJcMNRpf6sVQVYFQnrF-25" target="plJcMNRpf6sVQVYFQnrF-37">
          <mxGeometry relative="1" as="geometry" />
        </mxCell>
        <mxCell id="plJcMNRpf6sVQVYFQnrF-25" value="登陆表单" style="rounded=1;whiteSpace=wrap;html=1;" vertex="1" parent="1">
          <mxGeometry x="541.88" y="127.5" width="66.25" height="23.75" as="geometry" />
        </mxCell>
        <mxCell id="plJcMNRpf6sVQVYFQnrF-168" style="edgeStyle=orthogonalEdgeStyle;orthogonalLoop=1;jettySize=auto;html=1;exitX=1;exitY=0.5;exitDx=0;exitDy=0;entryX=0;entryY=0.5;entryDx=0;entryDy=0;curved=1;" edge="1" parent="1" source="plJcMNRpf6sVQVYFQnrF-26" target="plJcMNRpf6sVQVYFQnrF-105">
          <mxGeometry relative="1" as="geometry" />
        </mxCell>
        <mxCell id="plJcMNRpf6sVQVYFQnrF-26" value="个人信息修改表单" style="rounded=1;whiteSpace=wrap;html=1;" vertex="1" parent="1">
          <mxGeometry x="530.3199999999999" y="780" width="99.99" height="25" as="geometry" />
        </mxCell>
        <mxCell id="plJcMNRpf6sVQVYFQnrF-153" style="edgeStyle=orthogonalEdgeStyle;orthogonalLoop=1;jettySize=auto;html=1;exitX=1;exitY=0.25;exitDx=0;exitDy=0;entryX=0;entryY=0.5;entryDx=0;entryDy=0;curved=1;" edge="1" parent="1" source="plJcMNRpf6sVQVYFQnrF-27" target="plJcMNRpf6sVQVYFQnrF-48">
          <mxGeometry relative="1" as="geometry" />
        </mxCell>
        <mxCell id="plJcMNRpf6sVQVYFQnrF-27" value="修改课程表单" style="rounded=1;whiteSpace=wrap;html=1;" vertex="1" parent="1">
          <mxGeometry x="533.75" y="245" width="85" height="25" as="geometry" />
        </mxCell>
        <mxCell id="plJcMNRpf6sVQVYFQnrF-154" style="edgeStyle=orthogonalEdgeStyle;orthogonalLoop=1;jettySize=auto;html=1;exitX=1;exitY=0.5;exitDx=0;exitDy=0;entryX=0;entryY=0.75;entryDx=0;entryDy=0;curved=1;" edge="1" parent="1" source="plJcMNRpf6sVQVYFQnrF-28" target="plJcMNRpf6sVQVYFQnrF-49">
          <mxGeometry relative="1" as="geometry" />
        </mxCell>
        <mxCell id="plJcMNRpf6sVQVYFQnrF-28" value="查询课程表单" style="rounded=1;whiteSpace=wrap;html=1;" vertex="1" parent="1">
          <mxGeometry x="535.32" y="285" width="85" height="22.5" as="geometry" />
        </mxCell>
        <mxCell id="plJcMNRpf6sVQVYFQnrF-29" value="查询课程结果列表" style="rounded=1;whiteSpace=wrap;html=1;" vertex="1" parent="1">
          <mxGeometry x="531.5699999999999" y="310" width="100" height="30" as="geometry" />
        </mxCell>
        <mxCell id="plJcMNRpf6sVQVYFQnrF-35" value="POST/teacher" style="rounded=1;whiteSpace=wrap;html=1;" vertex="1" parent="1">
          <mxGeometry x="701" y="110" width="140" height="17.5" as="geometry" />
        </mxCell>
        <mxCell id="plJcMNRpf6sVQVYFQnrF-37" value="POST/teacher/login" style="rounded=1;whiteSpace=wrap;html=1;" vertex="1" parent="1">
          <mxGeometry x="700" y="135.63" width="140" height="16.25" as="geometry" />
        </mxCell>
        <mxCell id="plJcMNRpf6sVQVYFQnrF-38" value="POST/lesson" style="rounded=1;whiteSpace=wrap;html=1;" vertex="1" parent="1">
          <mxGeometry x="700" y="180" width="130" height="20" as="geometry" />
        </mxCell>
        <mxCell id="plJcMNRpf6sVQVYFQnrF-43" value="POST/teacher/logout" style="rounded=1;whiteSpace=wrap;html=1;" vertex="1" parent="1">
          <mxGeometry x="700" y="70" width="140" height="20" as="geometry" />
        </mxCell>
        <mxCell id="plJcMNRpf6sVQVYFQnrF-47" value="DELETE/lesson" style="rounded=1;whiteSpace=wrap;html=1;" vertex="1" parent="1">
          <mxGeometry x="700" y="210" width="130" height="20" as="geometry" />
        </mxCell>
        <mxCell id="plJcMNRpf6sVQVYFQnrF-48" value="PATCH/lesson" style="rounded=1;whiteSpace=wrap;html=1;" vertex="1" parent="1">
          <mxGeometry x="705" y="255" width="130" height="15" as="geometry" />
        </mxCell>
        <mxCell id="plJcMNRpf6sVQVYFQnrF-49" value="POST/lesson/search" style="rounded=1;whiteSpace=wrap;html=1;" vertex="1" parent="1">
          <mxGeometry x="705" y="282.5" width="130" height="25" as="geometry" />
        </mxCell>
        <mxCell id="plJcMNRpf6sVQVYFQnrF-161" style="edgeStyle=orthogonalEdgeStyle;orthogonalLoop=1;jettySize=auto;html=1;exitX=1;exitY=0.5;exitDx=0;exitDy=0;entryX=0;entryY=0.5;entryDx=0;entryDy=0;curved=1;" edge="1" parent="1" source="plJcMNRpf6sVQVYFQnrF-67" target="plJcMNRpf6sVQVYFQnrF-94">
          <mxGeometry relative="1" as="geometry" />
        </mxCell>
        <mxCell id="plJcMNRpf6sVQVYFQnrF-67" value="新建项目表单" style="rounded=1;whiteSpace=wrap;html=1;" vertex="1" parent="1">
          <mxGeometry x="534.07" y="490" width="80" height="25" as="geometry" />
        </mxCell>
        <mxCell id="plJcMNRpf6sVQVYFQnrF-156" style="edgeStyle=orthogonalEdgeStyle;orthogonalLoop=1;jettySize=auto;html=1;exitX=1;exitY=0.5;exitDx=0;exitDy=0;entryX=0;entryY=0.75;entryDx=0;entryDy=0;curved=1;" edge="1" parent="1" source="plJcMNRpf6sVQVYFQnrF-68" target="plJcMNRpf6sVQVYFQnrF-95">
          <mxGeometry relative="1" as="geometry" />
        </mxCell>
        <mxCell id="plJcMNRpf6sVQVYFQnrF-68" value="新建论文表单" style="rounded=1;whiteSpace=wrap;html=1;" vertex="1" parent="1">
          <mxGeometry x="535.32" y="347.5" width="80" height="25" as="geometry" />
        </mxCell>
        <mxCell id="plJcMNRpf6sVQVYFQnrF-157" style="edgeStyle=orthogonalEdgeStyle;orthogonalLoop=1;jettySize=auto;html=1;exitX=1;exitY=0.5;exitDx=0;exitDy=0;entryX=0;entryY=0.75;entryDx=0;entryDy=0;curved=1;" edge="1" parent="1" source="plJcMNRpf6sVQVYFQnrF-69" target="plJcMNRpf6sVQVYFQnrF-96">
          <mxGeometry relative="1" as="geometry" />
        </mxCell>
        <mxCell id="plJcMNRpf6sVQVYFQnrF-69" value="删除论文表单" style="rounded=1;whiteSpace=wrap;html=1;" vertex="1" parent="1">
          <mxGeometry x="535.3199999999999" y="377.5" width="79.37" height="20" as="geometry" />
        </mxCell>
        <mxCell id="plJcMNRpf6sVQVYFQnrF-162" style="edgeStyle=orthogonalEdgeStyle;orthogonalLoop=1;jettySize=auto;html=1;exitX=1;exitY=0.5;exitDx=0;exitDy=0;entryX=0;entryY=0.5;entryDx=0;entryDy=0;curved=1;" edge="1" parent="1" source="plJcMNRpf6sVQVYFQnrF-70" target="plJcMNRpf6sVQVYFQnrF-97">
          <mxGeometry relative="1" as="geometry" />
        </mxCell>
        <mxCell id="plJcMNRpf6sVQVYFQnrF-70" value="删除项目表单" style="rounded=1;whiteSpace=wrap;html=1;" vertex="1" parent="1">
          <mxGeometry x="533.13" y="517.5" width="79.37" height="20" as="geometry" />
        </mxCell>
        <mxCell id="plJcMNRpf6sVQVYFQnrF-158" style="edgeStyle=orthogonalEdgeStyle;orthogonalLoop=1;jettySize=auto;html=1;exitX=1;exitY=0.5;exitDx=0;exitDy=0;entryX=0;entryY=0.5;entryDx=0;entryDy=0;curved=1;" edge="1" parent="1" source="plJcMNRpf6sVQVYFQnrF-71" target="plJcMNRpf6sVQVYFQnrF-99">
          <mxGeometry relative="1" as="geometry" />
        </mxCell>
        <mxCell id="plJcMNRpf6sVQVYFQnrF-71" value="修改论文表单" style="rounded=1;whiteSpace=wrap;html=1;" vertex="1" parent="1">
          <mxGeometry x="533.13" y="400" width="85" height="25" as="geometry" />
        </mxCell>
        <mxCell id="plJcMNRpf6sVQVYFQnrF-163" style="edgeStyle=orthogonalEdgeStyle;orthogonalLoop=1;jettySize=auto;html=1;exitX=1;exitY=0.5;exitDx=0;exitDy=0;entryX=0;entryY=0.5;entryDx=0;entryDy=0;curved=1;" edge="1" parent="1" source="plJcMNRpf6sVQVYFQnrF-72" target="plJcMNRpf6sVQVYFQnrF-98">
          <mxGeometry relative="1" as="geometry" />
        </mxCell>
        <mxCell id="plJcMNRpf6sVQVYFQnrF-72" value="修改项目表单" style="rounded=1;whiteSpace=wrap;html=1;" vertex="1" parent="1">
          <mxGeometry x="531.57" y="542.5" width="85" height="25" as="geometry" />
        </mxCell>
        <mxCell id="plJcMNRpf6sVQVYFQnrF-164" style="edgeStyle=orthogonalEdgeStyle;orthogonalLoop=1;jettySize=auto;html=1;exitX=1;exitY=0.5;exitDx=0;exitDy=0;entryX=0;entryY=0.75;entryDx=0;entryDy=0;curved=1;" edge="1" parent="1" source="plJcMNRpf6sVQVYFQnrF-73" target="plJcMNRpf6sVQVYFQnrF-100">
          <mxGeometry relative="1" as="geometry" />
        </mxCell>
        <mxCell id="plJcMNRpf6sVQVYFQnrF-73" value="查询项目表单" style="rounded=1;whiteSpace=wrap;html=1;" vertex="1" parent="1">
          <mxGeometry x="530.3199999999999" y="570" width="85" height="22.5" as="geometry" />
        </mxCell>
        <mxCell id="plJcMNRpf6sVQVYFQnrF-160" style="edgeStyle=orthogonalEdgeStyle;orthogonalLoop=1;jettySize=auto;html=1;exitX=1;exitY=0.5;exitDx=0;exitDy=0;entryX=0;entryY=0.5;entryDx=0;entryDy=0;curved=1;" edge="1" parent="1" source="plJcMNRpf6sVQVYFQnrF-74" target="plJcMNRpf6sVQVYFQnrF-101">
          <mxGeometry relative="1" as="geometry" />
        </mxCell>
        <mxCell id="plJcMNRpf6sVQVYFQnrF-74" value="查询论文表单" style="rounded=1;whiteSpace=wrap;html=1;" vertex="1" parent="1">
          <mxGeometry x="534.68" y="425" width="85" height="22.5" as="geometry" />
        </mxCell>
        <mxCell id="plJcMNRpf6sVQVYFQnrF-77" value="查询项目结果列表" style="rounded=1;whiteSpace=wrap;html=1;" vertex="1" parent="1">
          <mxGeometry x="525.32" y="595" width="100" height="30" as="geometry" />
        </mxCell>
        <mxCell id="plJcMNRpf6sVQVYFQnrF-78" value="查询论文结果列表" style="rounded=1;whiteSpace=wrap;html=1;" vertex="1" parent="1">
          <mxGeometry x="525.6299999999999" y="450" width="100" height="30" as="geometry" />
        </mxCell>
        <mxCell id="plJcMNRpf6sVQVYFQnrF-165" style="edgeStyle=orthogonalEdgeStyle;orthogonalLoop=1;jettySize=auto;html=1;exitX=1;exitY=0.5;exitDx=0;exitDy=0;entryX=0;entryY=0.5;entryDx=0;entryDy=0;curved=1;" edge="1" parent="1" source="plJcMNRpf6sVQVYFQnrF-84" target="plJcMNRpf6sVQVYFQnrF-102">
          <mxGeometry relative="1" as="geometry" />
        </mxCell>
        <mxCell id="plJcMNRpf6sVQVYFQnrF-84" value="课程信息汇总" style="rounded=1;whiteSpace=wrap;html=1;" vertex="1" parent="1">
          <mxGeometry x="533.13" y="680" width="79.99" height="25" as="geometry" />
        </mxCell>
        <mxCell id="plJcMNRpf6sVQVYFQnrF-85" value="个人信息显示" style="rounded=1;whiteSpace=wrap;html=1;" vertex="1" parent="1">
          <mxGeometry x="527.51" y="640" width="89.99" height="30" as="geometry" />
        </mxCell>
        <mxCell id="plJcMNRpf6sVQVYFQnrF-166" style="edgeStyle=orthogonalEdgeStyle;orthogonalLoop=1;jettySize=auto;html=1;exitX=1;exitY=0.5;exitDx=0;exitDy=0;curved=1;" edge="1" parent="1" source="plJcMNRpf6sVQVYFQnrF-91" target="plJcMNRpf6sVQVYFQnrF-103">
          <mxGeometry relative="1" as="geometry" />
        </mxCell>
        <mxCell id="plJcMNRpf6sVQVYFQnrF-91" value="论文信息汇总" style="rounded=1;whiteSpace=wrap;html=1;" vertex="1" parent="1">
          <mxGeometry x="532.51" y="710" width="79.99" height="25" as="geometry" />
        </mxCell>
        <mxCell id="plJcMNRpf6sVQVYFQnrF-167" style="edgeStyle=orthogonalEdgeStyle;orthogonalLoop=1;jettySize=auto;html=1;exitX=1;exitY=0.5;exitDx=0;exitDy=0;curved=1;" edge="1" parent="1" source="plJcMNRpf6sVQVYFQnrF-92" target="plJcMNRpf6sVQVYFQnrF-104">
          <mxGeometry relative="1" as="geometry" />
        </mxCell>
        <mxCell id="plJcMNRpf6sVQVYFQnrF-92" value="项目信息汇总" style="rounded=1;whiteSpace=wrap;html=1;" vertex="1" parent="1">
          <mxGeometry x="533.13" y="740" width="77.8" height="30" as="geometry" />
        </mxCell>
        <mxCell id="plJcMNRpf6sVQVYFQnrF-94" value="POST/project" style="rounded=1;whiteSpace=wrap;html=1;" vertex="1" parent="1">
          <mxGeometry x="700" y="495" width="130" height="20" as="geometry" />
        </mxCell>
        <mxCell id="plJcMNRpf6sVQVYFQnrF-95" value="POST/paper" style="rounded=1;whiteSpace=wrap;html=1;" vertex="1" parent="1">
          <mxGeometry x="701" y="347.5" width="130" height="20" as="geometry" />
        </mxCell>
        <mxCell id="plJcMNRpf6sVQVYFQnrF-96" value="DELETE/lpaper" style="rounded=1;whiteSpace=wrap;html=1;" vertex="1" parent="1">
          <mxGeometry x="700" y="379.38" width="130" height="20" as="geometry" />
        </mxCell>
        <mxCell id="plJcMNRpf6sVQVYFQnrF-97" value="DELETE/project" style="rounded=1;whiteSpace=wrap;html=1;" vertex="1" parent="1">
          <mxGeometry x="700" y="522.5" width="130" height="20" as="geometry" />
        </mxCell>
        <mxCell id="plJcMNRpf6sVQVYFQnrF-98" value="PATCH/project" style="rounded=1;whiteSpace=wrap;html=1;" vertex="1" parent="1">
          <mxGeometry x="700" y="552.5" width="130" height="15" as="geometry" />
        </mxCell>
        <mxCell id="plJcMNRpf6sVQVYFQnrF-99" value="PATCH/paper" style="rounded=1;whiteSpace=wrap;html=1;" vertex="1" parent="1">
          <mxGeometry x="700" y="405" width="130" height="25" as="geometry" />
        </mxCell>
        <mxCell id="plJcMNRpf6sVQVYFQnrF-100" value="POST/project/search" style="rounded=1;whiteSpace=wrap;html=1;" vertex="1" parent="1">
          <mxGeometry x="705" y="585" width="130" height="25" as="geometry" />
        </mxCell>
        <mxCell id="plJcMNRpf6sVQVYFQnrF-101" value="POST/paper/search" style="rounded=1;whiteSpace=wrap;html=1;" vertex="1" parent="1">
          <mxGeometry x="701" y="447.5" width="130" height="25" as="geometry" />
        </mxCell>
        <mxCell id="plJcMNRpf6sVQVYFQnrF-102" value="POST/lesson/summary/:tid" style="rounded=1;whiteSpace=wrap;html=1;" vertex="1" parent="1">
          <mxGeometry x="689.5" y="675" width="153" height="25" as="geometry" />
        </mxCell>
        <mxCell id="plJcMNRpf6sVQVYFQnrF-103" value="POST/paper/summary/:tid" style="rounded=1;whiteSpace=wrap;html=1;" vertex="1" parent="1">
          <mxGeometry x="689.5" y="710" width="153" height="25" as="geometry" />
        </mxCell>
        <mxCell id="plJcMNRpf6sVQVYFQnrF-104" value="POST/project/summary/:tid" style="rounded=1;whiteSpace=wrap;html=1;" vertex="1" parent="1">
          <mxGeometry x="693.5" y="740" width="153" height="25" as="geometry" />
        </mxCell>
        <mxCell id="plJcMNRpf6sVQVYFQnrF-105" value="PATCH/teacher" style="rounded=1;whiteSpace=wrap;html=1;" vertex="1" parent="1">
          <mxGeometry x="705" y="780" width="130" height="25" as="geometry" />
        </mxCell>
        <mxCell id="plJcMNRpf6sVQVYFQnrF-121" style="edgeStyle=orthogonalEdgeStyle;orthogonalLoop=1;jettySize=auto;html=1;exitX=1;exitY=0.5;exitDx=0;exitDy=0;entryX=0;entryY=0.5;entryDx=0;entryDy=0;curved=1;" edge="1" parent="1" source="plJcMNRpf6sVQVYFQnrF-120" target="plJcMNRpf6sVQVYFQnrF-1">
          <mxGeometry relative="1" as="geometry" />
        </mxCell>
        <mxCell id="plJcMNRpf6sVQVYFQnrF-122" style="edgeStyle=orthogonalEdgeStyle;orthogonalLoop=1;jettySize=auto;html=1;exitX=0.5;exitY=0;exitDx=0;exitDy=0;entryX=0;entryY=0.5;entryDx=0;entryDy=0;curved=1;" edge="1" parent="1" source="plJcMNRpf6sVQVYFQnrF-120" target="plJcMNRpf6sVQVYFQnrF-20">
          <mxGeometry relative="1" as="geometry">
            <mxPoint x="-124.66666666666652" y="50" as="targetPoint" />
          </mxGeometry>
        </mxCell>
        <mxCell id="plJcMNRpf6sVQVYFQnrF-124" style="edgeStyle=orthogonalEdgeStyle;orthogonalLoop=1;jettySize=auto;html=1;exitX=0.5;exitY=1;exitDx=0;exitDy=0;entryX=0;entryY=0.5;entryDx=0;entryDy=0;curved=1;" edge="1" parent="1" source="plJcMNRpf6sVQVYFQnrF-120" target="plJcMNRpf6sVQVYFQnrF-123">
          <mxGeometry relative="1" as="geometry" />
        </mxCell>
        <mxCell id="plJcMNRpf6sVQVYFQnrF-120" value="教学科研登记系统" style="rounded=1;whiteSpace=wrap;html=1;" vertex="1" parent="1">
          <mxGeometry x="-180" y="366.5" width="110" height="57" as="geometry" />
        </mxCell>
        <mxCell id="plJcMNRpf6sVQVYFQnrF-123" value="底栏" style="rounded=1;whiteSpace=wrap;html=1;" vertex="1" parent="1">
          <mxGeometry x="537.5" y="820" width="67.5" height="20" as="geometry" />
        </mxCell>
      </root>
    </mxGraphModel>
  </diagram>
</mxfile>
